<!--?xml version="1.0" encoding="UTF-8" standalone="no"?-->
<svg xmlns:dc="http://purl.org/dc/elements/1.1/" xmlns:cc="http://creativecommons.org/ns#" xmlns:rdf="http://www.w3.org/1999/02/22-rdf-syntax-ns#" xmlns:svg="http://www.w3.org/2000/svg" xmlns="http://www.w3.org/2000/svg" xmlns:xlink="http://www.w3.org/1999/xlink" xmlns:sodipodi="http://sodipodi.sourceforge.net/DTD/sodipodi-0.dtd" xmlns:inkscape="http://www.inkscape.org/namespaces/inkscape" inkscape:version="1.0 (4035a4f, 2020-05-01)" sodipodi:docname="manInThoughtWhiteSmall.svg" id="svg233" height="640" width="400" viewBox="0 0 400 640" preserveAspectRatio="xMidYMid meet" version="1.1" style="">
  <metadata id="metadata237">
    <rdf:rdf>
      <cc:work rdf:about="">
        <dc:format>image/svg+xml</dc:format>
        <dc:type rdf:resource="http://purl.org/dc/dcmitype/StillImage"></dc:type>
        <dc:title></dc:title>
      </cc:work>
    </rdf:rdf>
  </metadata>
  <sodipodi:namedview inkscape:current-layer="svg233" inkscape:window-maximized="0" inkscape:window-y="0" inkscape:window-x="0" inkscape:cy="320" inkscape:cx="320" inkscape:zoom="1.0453125" showgrid="false" id="namedview235" inkscape:window-height="900" inkscape:window-width="1440" inkscape:pageshadow="2" inkscape:pageopacity="0" guidetolerance="10" gridtolerance="10" objecttolerance="10" borderopacity="1" bordercolor="#666666" pagecolor="#ffffff"></sodipodi:namedview>
  <defs id="defs41">
    <path id="a2s9gq1QXl" d="m 467,330.5 c -4,20 -17,40 -40,62 -23,22 -51,16 -68,12 -17,-4 -34,-30 -30,-23 4,7 7,19 9,33 1.33,9.33 3,16 5,20 l 16,6 c 33.33,-4 57,-7.67 71,-11 21,-5 40,-19 46,-28 6,-9 6,-24 13,-54 4.67,-20 4.67,-41 0,-63 l -26,-23 9,23 -25,-32 c 29.33,0.67 49,2 59,4 15,3 13,12 11,28 -2,16 -3,59 0,70 3,11 -4,91 -5,114 -1,23 5,60 8,78 2,12 -1.67,28 -11,48 l -28,-5 -105,-5 -56,-3 h -43 -49 c -2.67,-10 -5.33,-18.67 -8,-26 -4,-11 -20,-29 -30,-51 -10,-22 -14,-52 -14,-75 0,-15.33 7.33,-29.33 22,-42" class="LPuotSGt_0"></path>
    <path id="aAM4NLTIC" d="" class="LPuotSGt_1"></path>
    <path id="c52ciJ84RQ" d="m 416.88,225.99 c 4.5,-5.5 4.5,-4.5 11,-4.5 4.33,0 6.93,1 7.8,3 v 9 l 2.67,13.05 10.77,12.2 c -0.29,-1.32 -1.77,-2.2 -4.44,-2.64 -2.67,-0.44 -4.22,0.22 -4.67,2 l -6,4.33 1.67,14.77 c 0.89,9.56 1.44,15.67 1.67,18.33 0.33,4 -5.67,27 -4.67,35.67 1,8.67 6.67,12.33 5.67,10 -0.67,-1.56 -1,-3.44 -1,-5.67 l -1.67,-14 V 303.2 c -3.11,-5.78 -4.78,-11.22 -5,-16.33 -0.22,-5.11 0.44,-11.45 2,-19 7.56,0.66 13.44,1 17.67,1 4.22,0 8.55,0 13,0 l -3.34,11.66 c -3.33,16 -4.77,25.11 -4.33,27.34 0.67,3.33 -0.33,22.66 -1.33,29.66 -1,7 -8,19.67 -13.34,24 -5.33,4.34 -6.33,2.34 -12,6 -5.66,3.67 -8.33,9.34 -13.66,17 -3.56,5.11 -5.67,10.45 -6.34,16 6.67,-6.44 14.56,-13.11 23.67,-20 13.67,-10.33 31.72,-33.33 36.52,-41.93 4.8,-8.6 8.4,-28.6 8.8,-32 0.27,-2.27 -2.67,-9.53 -8.8,-21.8 1.47,3.33 2.73,6.67 3.8,10 1.6,5 -1,10.6 -1.8,19 -0.53,5.6 -2.07,11.13 -4.6,16.6" class="LPuotSGt_2"></path>
    <path id="bqFpIrFUA" d="m 439.32,79.54 c 3.67,4.33 5.77,7.33 6.3,9 -29.53,11.67 -42.8,18.83 -39.8,21.5 4.5,4 2.5,4.5 7.92,2.15 3.61,-1.57 5.17,-4.23 4.68,-8 9.33,-0.33 16.93,-0.83 22.8,-1.5 5.87,-0.67 9.93,-2 12.2,-4 -1,3.33 -2.33,7.83 -4,13.5 -2.5,8.5 -4,14 -3.8,23 0.2,9 2.1,15.75 2.1,25.42 0,9.66 -0.1,6.73 -2.1,25.73 -1.33,12.67 -2.8,29 -4.4,49 l -0.8,-11 -3,-5.2 c -2.67,-1.73 -4.6,-4.07 -5.8,-7 -1.2,-2.93 -2.13,-4.27 -2.8,-4 0,-0.93 -1.07,-0.6 -3.2,1 -3.2,2.4 -3.4,1.4 -7.2,3 -3.8,1.6 -3.68,4.6 -4.68,7.4 -0.67,1.87 -1.07,5.4 -1.2,10.6 l 4.2,-4" class="LPuotSGt_3"></path>
    <path id="b2MDvESnT" d="m 393.82,82.54 c 3.33,17.33 6,26.83 8,28.5 2,1.67 7.83,-3.33 17.5,-15 6.33,-11.67 10.5,-18.83 12.5,-21.5 2,-2.67 4.5,-1 7.5,5" class="LPuotSGt_4"></path>
    <path id="afOX6BdT3" d="m 369.42,508.59 c 6.67,11.33 9.67,18.5 9,21.5 -1,4.5 -3.5,12 -3,29 0.5,17 -2.5,15.5 -12.5,18.5 -10,3 -36,-8 -46,-9 -6.67,-0.67 -19.5,-6.67 -38.5,-18 1,-4 1.67,-9.17 2,-15.5 0.33,-6.33 -0.33,-20 -2,-41 -1.67,14 -2.5,24.67 -2.5,32 0,11 -5.5,23.5 -6,36 -0.5,12.5 0.5,13 6,12 5.5,-1 17,0.5 28,0 11,-0.5 24,0.5 35.5,3.5 11.5,3 26,6.5 36,6.5 6.67,0 15.5,-1.5 26.5,-4.5 -9.33,-20.67 -14.5,-33.83 -15.5,-39.5 -1,-5.67 -7.17,-18.5 -18.5,-38.5" class="LPuotSGt_5"></path>
    <path id="b1i65FlKc8" d="m 265.42,324.09 8.5,7.5 4,18 c -7.67,-4.67 -12.33,-7.33 -14,-8 -2.5,-1 1,-18 -2,-21.59 -2,-2.39 -7.33,-2.39 -16,0 l -3,8.59 c 0.33,16 0.83,26.17 1.5,30.5 0.67,4.33 4.33,10.33 11,18 l 8.5,-3.5 -5.5,11 c 2.67,0 5,-1.33 7,-4 2,-2.67 5.67,-3.83 11,-3.5 -3.33,7.33 -4.17,14.33 -2.5,21 2.5,10 -3,16.5 -6,19 -3,2.5 14.5,-0.5 27.5,-3.5 8.67,-2 14.17,-4.33 16.5,-7 -3,-3.33 -5.83,-7 -8.5,-11 -2.67,-4 -4.83,-7.17 -6.5,-9.5 -2.67,-6.33 -7,-12.5 -13,-18.5 -6,-6 -10.17,-9.83 -12.5,-11.5 4.33,1.67 9.83,4 16.5,7 10,4.5 14,10.5 22,17.5 8,7 17,10 19,17.5 1.33,5 4.83,17.83 10.5,38.5 l -8,-6 c 3.33,5.67 10.17,22 20.5,49 15.5,40.5 10.5,34 5,39 -5.5,5 -15,4.5 -21.06,4 -6.05,-0.5 -17.94,-6.5 -28.44,-15.5 -7,-6 -16.83,-10.33 -29.5,-13" class="LPuotSGt_6"></path>
    <path id="c6FVJkElT" d="m 213.92,303.09 -12,6 v 12.5 l 2,16.5 v 14 l 10,-1.5 10.5,1.5 c 5.33,-3.67 9.17,-7 11.5,-10 2.33,-3 4,-5.33 5,-7 l 5,-16.89 -10,-11.11 h -9.5 v 4 7.11 l -2,12.89 -2.5,12.5" class="LPuotSGt_7"></path>
    <path id="a9sFuBQIe" d="m 225.92,309.59 -13,-6.5" class="LPuotSGt_8"></path>
    <path id="cVhOHYHCv" d="m 258.92,383.59 c -4,-1 -7.17,-1 -9.5,0 -2.33,1 -5.33,-2.83 -9,-11.5 -0.33,5 -0.33,8.83 0,11.5 0.33,2.67 -4.5,2.67 -14.5,0 l -9,-18 5,8 -6.5,10 c -3,-4.67 -6,-7.33 -9,-8 -3,-0.67 -6.17,-1.33 -9.5,-2 l 2.5,-12 c -1,-10 -1,-17.67 0,-23 1.5,-8 4,-29.5 0,-33.5 -2.67,-2.67 -6,-3.33 -10,-2 v 7.89 c -3,1.74 -5.5,3.78 -7.5,6.11 -3,3.5 -0.5,11.5 -1.5,21.5 -0.67,6.67 -0.17,20 1.5,40 l 15,7 c 8.33,4.67 21.67,11.5 40,20.5 27.5,13.5 27,20.5 30.5,31.5 2.33,7.33 4.5,17 6.5,29 l 6,14.5 -1.5,13" class="LPuotSGt_9"></path>
    <path id="f4blMYCeah" d="m 273.65,328.77 c 2.67,1.56 5.11,2 7.34,1.34 2.22,-0.67 6.66,-0.67 13.33,0 l -6,5.66 h -11.33 l -6.67,1.34 z" class="LPuotSGt_10"></path>
    <path id="ajEOTTMgT" d="m 264.32,322.44 18,6.33" class="LPuotSGt_11"></path>
    <path id="a1lhOFrPPO" d="m 441.12,234.09 c -8.33,-2.67 -14.83,-4.5 -19.5,-5.5 -7,-1.5 -8,5 -9.5,12.5 -1,5 -1.67,8.33 -2,10 -5.33,2.33 -7.83,5.33 -7.5,9 0.33,3.67 2.83,3.67 7.5,0 l 9,-5.5 h 12.5 l 5.5,-3.5 -3,9 c -8.67,10 -14.52,16.83 -17.55,20.5 -4.55,5.5 -10.95,1.5 -13.95,-3.5 -2,-3.33 -3.33,-6.83 -4,-10.5 -1.67,3.67 -3.83,9.83 -6.5,18.5 -4,13 -9.5,24 -16,32 -4.33,5.33 -19,18.83 -44,40.5 l 5,2 c -2,2.67 -3.67,6.5 -5,11.5 -2,7.5 0,11 2.5,15 1.67,2.67 8,4.67 19,6 4,-0.67 9.33,-0.67 16,0 10,1 12,3.5 20.5,6.17 5.67,1.77 11.96,2.53 18.89,2.27" class="LPuotSGt_12"></path>
    <path id="a10xVfwiSt" d="m 445.87,192.14 c -4,-14.67 -5.58,-25.65 -4.75,-32.95 1.25,-10.95 -0.75,-27.05 0,-39.55 0.75,-12.5 -4.75,-9 -14.75,-8.29 -10,0.71 -17,2.79 -27.7,5.29 -10.7,2.5 -15.5,-0.45 -10.5,12.05 5,12.5 -7,9 -11.5,5.5 -4.5,-3.5 -11.5,-4.5 -14.38,2.5 -1.91,4.67 0.71,12.17 7.88,22.5 l -27,-11 16.5,24 c -7,-4 -9.5,-4.5 -7.5,-1.5 2,3 2.67,9.67 2,20 1,4 5.17,6.5 12.5,7.5 11,1.5 12.5,2 19.54,8.5 4.7,4.33 7.85,7.5 9.46,9.5 3.33,-0.67 7.78,-2.17 13.34,-4.5 5.57,-2.33 9.78,-3 12.66,-2 l -5.1,5 -9.4,5 -8.5,8.68 4,13.32 -16.46,18 -9.54,-19.5 5.5,1.5 11.65,-12 c -2.1,1.33 -5.98,3.22 -11.65,5.65 -8.5,3.65 -29.5,14.35 -35,19.35 -3.67,3.33 -11.5,12.33 -23.5,27 -3,3 -4.22,8.33 -3.67,16 0.83,11.5 -3.33,20 -6.33,44.5 -3,24.5 1.5,33.5 6.33,28 3.22,-3.67 6.99,-7.67 11.3,-12" class="LPuotSGt_13"></path>
    <path id="h1mYyPoyCB" d="" class="LPuotSGt_14"></path>
    <path id="i1hqPDXTxp" d="m 261.54,267.59 c 4.67,6 8.09,9.92 10.25,11.75 3.25,2.75 15.5,7 20,7.5 4.5,0.5 5.5,-1.25 9.5,-3.75 4,-2.5 4.5,-7.75 5.5,-11 1,-3.25 -0.5,-16.25 -1.5,-20.5 -0.66,-2.83 -5.5,-8.92 -14.5,-18.25 l -25,-1.5 -9,6.75 -2.25,8.75 c 0.34,5.33 1.09,9.42 2.25,12.25 0.7,1.69 1.54,3.31 2.53,4.88 0.67,1.07 1.41,2.11 2.22,3.12 5.67,3.5 9.92,6.58 12.75,9.25 2.84,2.67 6.67,4.75 11.5,6.25 l -12.47,1 c -1.35,-1.5 -0.53,0.92 2.47,7.25 3,6.33 2.5,9.67 -1.5,10 l -6.75,-1 c 1.17,1.5 0.1,3.5 -3.22,6 -3.32,2.5 -4.91,1.67 -4.78,-2.5 -3,0.17 -6.08,1.42 -9.25,3.75 -4.75,3.5 -7.5,-3.75 -6.75,-1.25 0.5,1.67 1.09,4.58 1.75,8.75 l -3.75,-0.61 v 4.86 l 2,3.1" class="LPuotSGt_15"></path>
    <path id="gajkFNoBZ" d="m 230.03,273.97 c -2.5,3 -6.41,3 -11.74,0 -4,-2 -7.33,-4.34 -10,-7 -4,-4 -11.5,-12.5 -13,-28 -1.5,-15.5 1,-15 10.5,-16.5 9.5,-1.5 13,-1 24.24,5.9 11.23,6.91 10.01,23.22 9.76,30.72 -0.05,1.76 -0.2,3.15 -0.35,4.27 -0.51,3.65 -1.18,4.45 0.35,5.98 2,2 -0.25,5.5 0,9.5 0.25,4 -6.5,8.25 -8.75,12.25 -1.5,2.67 -0.83,5.08 2,7.25 l 4,2.5 c 3.5,3.67 6,5.5 7.5,5.5 1.5,0 2.84,-0.42 4,-1.25 1.84,-1.83 5.17,-3.25 10,-4.25 7.25,-1.5 -0.25,4.75 1,2.25 0.84,-1.67 3.34,-2.67 7.5,-3" class="LPuotSGt_16"></path>
    <path id="b2a7UCyrUn" d="m 236.29,300.47 -1.5,-9 1.5,-11.5 c 2.67,-12.67 3.67,-17.97 3,-15.91 -0.66,2.06 -3.75,5.19 -9.26,9.41" class="LPuotSGt_17"></path>
    <path id="bkbCLbxT" d="m 267.54,302.42 -3.22,-1.95" class="LPuotSGt_18"></path>
    <path id="hEFJjQDOF" d="m 289.17,245.53 c 1.58,-0.17 3.71,-0.88 6.37,-2.15 -0.91,0.1 -1.75,0.44 -2.5,1.02 -0.75,0.59 -1.16,1.09 -1.25,1.5 -0.16,1.34 -0.16,2.5 0,3.48 0.25,1.48 0.5,1.77 2.13,2.34 1.62,0.56 2.25,0.18 4,-0.57 1.75,-0.75 1,-3.12 0.75,-5.25 -0.17,-1.41 0.96,-2.5 3.37,-3.25 l -4.12,1.75 c -2.75,-0.75 -5.46,-1.33 -8.13,-1.75 -4,-0.62 -14,-0.6 -9.87,-0.6 2.75,0 3.82,-1.33 3.21,-4 h 11.19 l 12.8,4 -2.99,1.33 4.66,3.67 c -2.44,2.44 -4.88,4.26 -7.33,5.45 -3.67,1.78 -8.33,0.22 -11.67,-0.78 -2.22,-0.67 -4.71,-2.45 -7.47,-5.34 l -1.6,-1.06 -2.93,-1.94 c -5.11,0.45 -9.33,0.89 -12.66,1.34 -3.34,0.44 -5.34,2 -6,4.66 -0.45,4 0.78,7.22 3.66,9.67 4.34,3.67 8,5 10.53,9 1.68,2.67 2.02,7.67 1.01,15" class="LPuotSGt_19"></path>
    <path id="b4qiRfRoOI" d="m 290.92,245.4 c -1.75,0.34 -3.5,0.59 -5.25,0.75 -1.75,0.17 -3.83,-0.08 -6.25,-0.75" class="LPuotSGt_20"></path>
    <path id="arm4vTUrY" d="m 309.6,248.27 c 4,-2.06 8.33,-3.01 13,-2.87 7,0.22 63.33,-23.22 71.33,-26.45 8,-3.23 9,-5.43 16,-7.1 4.67,-1.11 7.33,-1.56 8,-1.33 -0.89,3.55 -2.67,5.11 -5.33,4.66 -2.67,-0.44 -7.05,0.81 -13.14,3.77 l -78,29.67 h -5.33 l -3.43,6.66 -7.57,-8.33 9.66,-0.75 -8.66,9.08" class="LPuotSGt_21"></path>
    <path id="e3K6qgV1Ir" d="m 229.42,226.75 8.75,6.12 c -5.83,-1.08 -7.41,-0.54 -4.75,1.63 4,3.25 6.5,3.25 9.5,0 2,-2.17 1.54,-4.33 -1.38,-6.5 2.76,0.17 4.55,1.79 5.38,4.87 0.84,3.08 -0.96,7.26 -5.38,12.53 -5.58,-7.43 -8.28,-9.88 -8.12,-7.35 0.25,3.8 -8.25,8.7 -6.25,7.35 2,-1.34 10.5,-4.65 16.37,-6.4 3.92,-1.17 8.13,-0.92 12.63,0.75" class="LPuotSGt_22"></path>
    <path id="a1V3zDi9Ep" d="m 193.17,228.37 c 0.5,-5.25 16,-8 19,-9.25 3,-1.25 8.5,-6.5 11,-10 2.51,-3.5 4,-9.75 5.75,-14.75 1.75,-5 0.5,-8.5 0,-13.25 -0.5,-4.75 -1.25,-9.75 0.5,-24.25 1.17,-9.66 5.5,-14.91 13,-15.75 -5.16,1 -8.98,2.09 -11.45,3.25 -2.47,1.17 -5.07,3.2 -7.8,6.08 -6.03,7.17 -10.71,13.17 -14.05,18 -5,7.25 -4.95,9.3 -7.2,16.05 -2.26,6.75 -3.75,16.25 -4.5,25.96 -0.75,9.71 1.5,12.79 1.5,16.29 0,2.33 -1.34,3.83 -4.03,4.5 0.69,2.67 1.53,5.25 2.53,7.75 1.5,3.75 15,15 12.25,12.25 -2.75,-2.75 -4.75,-3.5 -9.25,-12.25 -4.5,-8.75 -1,-9 4,-12.25 3.34,-2.17 7.92,-3.25 13.75,-3.25 l -2.25,-6.75 3.5,-4 c 0.5,1.5 1.75,3.17 3.75,5 3,2.75 6.5,1 11.59,2.75 3.39,1.17 6.61,3.25 9.66,6.25" class="LPuotSGt_23"></path>
    <path id="d29RZZ1xdd" d="m 264.32,231.84 v -6.19 c 10.73,-1 21.27,-2.83 31.6,-5.5 10.33,-2.67 22.5,-0.83 36.5,5.5 l 5.5,-13 c -1,-5.67 -1.5,-11.08 -1.5,-16.25 0,-7.75 4,-15.25 11.84,-23.25 7.85,-8 15.16,-16 23.16,-25.5 5.33,-6.33 8.5,-11.5 9.5,-15.5 3.33,-9.67 7,-16.93 11,-21.79 4,-4.86 8.49,-9.26 13.49,-13.21" class="LPuotSGt_24"></path>
    <path id="b1DYlKMVvQ" d="m 289.67,234.52 h 5.5 l 10.75,3.53 17.5,-15.78 5.5,12.25 c -5.17,-2.16 -9.83,-4 -14,-5.5 -4.17,-1.5 -8.75,-0.56 -13.75,2.82 l -26,-1.57 -10.85,1.57" class="LPuotSGt_25"></path>
    <path id="h6OSccexLk" d="m 367.57,120.25 c 3,-3.5 6,-19.5 9,-31 3,-11.5 -7,-19.5 -12.5,-29.42 -5.5,-9.91 -32,-10.08 -25.5,-12.08 4.33,-1.33 9.5,-4 15.5,-8 l -29,5 c 15.33,-5.33 25.83,-8.17 31.5,-8.5 8.5,-0.5 13.5,2 18,11.5 4.5,9.5 8,5.5 18,20.8 10,15.3 8.5,10.7 8.33,4.76 -0.11,-3.96 -4.05,-14.31 -11.83,-31.06 4.55,9.94 8.5,15.8 11.83,17.58 5,2.67 10.34,9.34 11.67,14.67 1.33,5.33 -5,11.67 -6.33,16 -1.34,4.33 2.33,2.67 4.33,0 1.33,-1.78 3.11,-7.11 5.33,-16 l -1.53,-5.95" class="LPuotSGt_26"></path>
    <path id="eUxbaVuRs" d="m 282.32,141.12 -20.25,-10.37 c 14,1 24.75,1 32.25,0 7.5,-1 22.42,1.33 44.75,7 -6,-1 -6.67,-2.5 -2,-4.5 4.67,-2 2.74,-8.17 -5.77,-18.5 -7.15,-14.67 -14.23,-25.67 -21.23,-33 -7,-7.33 -22.25,-10.15 -45.75,-8.44 4.17,-0.37 14.93,-1.39 32.3,-3.06 26.05,-2.5 47.95,16 50.45,29.5 1.67,9 0.17,22.79 -4.5,41.37 4.33,-4.25 8.17,-8.54 11.5,-12.87 3.33,-4.33 4.5,-15.5 3.5,-33.5 2.67,3.67 5,8.17 7,13.5 2,5.33 2,11.5 0,18.5 l 4,-8.5" class="LPuotSGt_27"></path>
    <path id="b2kMDFHjXu" d="m 322.57,52.75 c 5,5 8.33,10.17 10,15.5 2.5,8 5,20.5 5.5,28.9 0.5,8.4 -8,40.6 -11.5,43.97 -2.33,2.26 -2.33,-12.4 0,-43.97 -5.67,-19.6 -7.86,-28.64 -6.57,-27.13 1.29,1.51 2.98,15.29 5.07,41.33 l -2.5,26.4 c -7.33,-14.67 -11.93,-24.33 -13.78,-29 -2.77,-7 -20.22,-20.5 -28.87,-22 -5.77,-1 -16.05,2.47 -30.85,10.4 11.67,-2.93 19.75,-3.57 24.25,-1.9 6.75,2.5 8.25,7.5 9,13.5 0.5,4 -1.58,13.67 -6.25,29 -4.67,-8.67 -9.33,-18.83 -14,-30.5 C 257.4,95.58 248.3,90.61 234.76,92.33 262.3,77.28 278.15,68.58 282.32,66.25 c 6.25,-3.5 37.75,-19 52.54,-19 14.8,0 33.21,17 35.63,24.5 1.61,5 2.63,18.2 3.08,39.6 -2.67,-19.73 -5,-31.6 -7,-35.6 -3,-6 -14,-7.5 -34,-13 -20,-5.5 -21,-6.5 -7.5,-14 13.5,-7.5 38.5,-11 48.5,-9 10,2 24,12 27.5,16 3.5,4 0.5,13.5 -5,28 -3.67,9.67 -5.67,6.19 -6,-10.44" class="LPuotSGt_28"></path>
    <path id="eCovxcLP1" d="m 221.27,224.45 c -4.67,-1.67 -11.12,-5.17 -19.35,-10.5 -8.23,-5.33 -11.62,-1.07 -10.15,12.8 -1.33,-11.2 -2,-19.97 -2,-26.3 0,-9.5 7.5,-38 10,-51.5 2.5,-13.5 23.8,-51.7 38.3,-14.2 14.5,37.5 15,1 18.1,-5.5 3.11,-6.5 -0.1,-21.5 -18.1,-21.5 -12,0 -13.1,-5.14 -3.31,-15.42" class="LPuotSGt_29"></path>
    <path id="a19qK7gsGX" d="m 194.89,222.27 c -1.08,-6.88 -1.08,-15.5 0,-25.87 1.62,-15.55 27.38,-36.95 22.88,-31.91 -4.5,5.05 0,11.96 1.65,26.46 1.1,9.67 -0.45,14.33 -4.65,14 l -3,-51 c 6.67,-3.33 11.7,-7.61 15.1,-12.83 3.4,-5.21 16.42,-7.44 39.06,-6.67" class="LPuotSGt_30"></path>
  </defs>
  <g transform="translate(-145.41106,3.8266069)" id="g231">
    <g id="g229">
      <g id="g47">
        <g id="g45">
          <use height="100%" width="100%" y="0" x="0" id="use43" stroke-opacity="1" stroke-width="1" stroke="#ffffff" fill-opacity="0" opacity="1" xlink:href="#a2s9gq1QXl"></use>
        </g>
      </g>
      <g id="g53">
        <g id="g51">
          <use height="100%" width="100%" y="0" x="0" id="use49" stroke-opacity="1" stroke-width="1" stroke="#ffffff" fill-opacity="0" opacity="1" xlink:href="#aAM4NLTIC"></use>
        </g>
      </g>
      <g id="g59">
        <g id="g57">
          <use height="100%" width="100%" y="0" x="0" id="use55" stroke-opacity="1" stroke-width="1" stroke="#ffffff" fill-opacity="0" opacity="1" xlink:href="#c52ciJ84RQ"></use>
        </g>
      </g>
      <g id="g65">
        <g id="g63">
          <use height="100%" width="100%" y="0" x="0" id="use61" stroke-opacity="1" stroke-width="1" stroke="#ffffff" fill-opacity="0" opacity="1" xlink:href="#bqFpIrFUA"></use>
        </g>
      </g>
      <g id="g71">
        <g id="g69">
          <use height="100%" width="100%" y="0" x="0" id="use67" stroke-opacity="1" stroke-width="1" stroke="#ffffff" fill-opacity="0" opacity="1" xlink:href="#b2MDvESnT"></use>
        </g>
      </g>
      <g id="g77">
        <g id="g75">
          <use height="100%" width="100%" y="0" x="0" id="use73" stroke-opacity="1" stroke-width="1" stroke="#ffffff" fill-opacity="0" opacity="1" xlink:href="#afOX6BdT3"></use>
        </g>
      </g>
      <g id="g83">
        <g id="g81">
          <use height="100%" width="100%" y="0" x="0" id="use79" stroke-opacity="1" stroke-width="1" stroke="#ffffff" fill-opacity="0" opacity="1" xlink:href="#b1i65FlKc8"></use>
        </g>
      </g>
      <g id="g89">
        <g id="g87">
          <use height="100%" width="100%" y="0" x="0" id="use85" stroke-opacity="1" stroke-width="1" stroke="#ffffff" fill-opacity="0" opacity="1" xlink:href="#c6FVJkElT"></use>
        </g>
      </g>
      <g id="g95">
        <g id="g93">
          <use height="100%" width="100%" y="0" x="0" id="use91" stroke-opacity="1" stroke-width="1" stroke="#ffffff" fill-opacity="0" opacity="1" xlink:href="#a9sFuBQIe"></use>
        </g>
      </g>
      <g id="g101">
        <g id="g99">
          <use height="100%" width="100%" y="0" x="0" id="use97" stroke-opacity="1" stroke-width="1" stroke="#ffffff" fill-opacity="0" opacity="1" xlink:href="#cVhOHYHCv"></use>
        </g>
      </g>
      <g id="g107">
        <g id="g105">
          <use height="100%" width="100%" y="0" x="0" id="use103" stroke-opacity="1" stroke-width="1" stroke="#ffffff" fill-opacity="0" opacity="1" xlink:href="#f4blMYCeah"></use>
        </g>
      </g>
      <g id="g113">
        <g id="g111">
          <use height="100%" width="100%" y="0" x="0" id="use109" stroke-opacity="1" stroke-width="1" stroke="#ffffff" fill-opacity="0" opacity="1" xlink:href="#ajEOTTMgT"></use>
        </g>
      </g>
      <g id="g119">
        <g id="g117">
          <use height="100%" width="100%" y="0" x="0" id="use115" stroke-opacity="1" stroke-width="1" stroke="#ffffff" fill-opacity="0" opacity="1" xlink:href="#a1lhOFrPPO"></use>
        </g>
      </g>
      <g id="g125">
        <g id="g123">
          <use height="100%" width="100%" y="0" x="0" id="use121" stroke-opacity="1" stroke-width="1" stroke="#ffffff" fill-opacity="0" opacity="1" xlink:href="#a10xVfwiSt"></use>
        </g>
      </g>
      <g id="g131">
        <g id="g129">
          <use height="100%" width="100%" y="0" x="0" id="use127" stroke-opacity="1" stroke-width="1" stroke="#ffffff" fill-opacity="0" opacity="1" xlink:href="#h1mYyPoyCB"></use>
        </g>
      </g>
      <g id="g137">
        <g id="g135">
          <use height="100%" width="100%" y="0" x="0" id="use133" stroke-opacity="1" stroke-width="1" stroke="#ffffff" fill-opacity="0" opacity="1" xlink:href="#i1hqPDXTxp"></use>
        </g>
      </g>
      <g id="g143">
        <g id="g141">
          <use height="100%" width="100%" y="0" x="0" id="use139" stroke-opacity="1" stroke-width="1" stroke="#ffffff" fill-opacity="0" opacity="1" xlink:href="#gajkFNoBZ"></use>
        </g>
      </g>
      <g id="g149">
        <g id="g147">
          <use height="100%" width="100%" y="0" x="0" id="use145" stroke-opacity="1" stroke-width="1" stroke="#ffffff" fill-opacity="0" opacity="1" xlink:href="#b2a7UCyrUn"></use>
        </g>
      </g>
      <g id="g155">
        <g id="g153">
          <use height="100%" width="100%" y="0" x="0" id="use151" stroke-opacity="1" stroke-width="1" stroke="#ffffff" fill-opacity="0" opacity="1" xlink:href="#bkbCLbxT"></use>
        </g>
      </g>
      <g id="g161">
        <g id="g159">
          <use height="100%" width="100%" y="0" x="0" id="use157" stroke-opacity="1" stroke-width="1" stroke="#ffffff" fill-opacity="0" opacity="1" xlink:href="#hEFJjQDOF"></use>
        </g>
      </g>
      <g id="g167">
        <g id="g165">
          <use height="100%" width="100%" y="0" x="0" id="use163" stroke-opacity="1" stroke-width="1" stroke="#ffffff" fill-opacity="0" opacity="1" xlink:href="#b4qiRfRoOI"></use>
        </g>
      </g>
      <g id="g173">
        <g id="g171">
          <use height="100%" width="100%" y="0" x="0" id="use169" stroke-opacity="1" stroke-width="1" stroke="#ffffff" fill-opacity="0" opacity="1" xlink:href="#arm4vTUrY"></use>
        </g>
      </g>
      <g id="g179">
        <g id="g177">
          <use height="100%" width="100%" y="0" x="0" id="use175" stroke-opacity="1" stroke-width="1" stroke="#ffffff" fill-opacity="0" opacity="1" xlink:href="#e3K6qgV1Ir"></use>
        </g>
      </g>
      <g id="g185">
        <g id="g183">
          <use height="100%" width="100%" y="0" x="0" id="use181" stroke-opacity="1" stroke-width="1" stroke="#ffffff" fill-opacity="0" opacity="1" xlink:href="#a1V3zDi9Ep"></use>
        </g>
      </g>
      <g id="g191">
        <g id="g189">
          <use height="100%" width="100%" y="0" x="0" id="use187" stroke-opacity="1" stroke-width="1" stroke="#ffffff" fill-opacity="0" opacity="1" xlink:href="#d29RZZ1xdd"></use>
        </g>
      </g>
      <g id="g197">
        <g id="g195">
          <use height="100%" width="100%" y="0" x="0" id="use193" stroke-opacity="1" stroke-width="1" stroke="#ffffff" fill-opacity="0" opacity="1" xlink:href="#b1DYlKMVvQ"></use>
        </g>
      </g>
      <g id="g203">
        <g id="g201">
          <use height="100%" width="100%" y="0" x="0" id="use199" stroke-opacity="1" stroke-width="1" stroke="#ffffff" fill-opacity="0" opacity="1" xlink:href="#h6OSccexLk"></use>
        </g>
      </g>
      <g id="g209">
        <g id="g207">
          <use height="100%" width="100%" y="0" x="0" id="use205" stroke-opacity="1" stroke-width="1" stroke="#ffffff" fill-opacity="0" opacity="1" xlink:href="#eUxbaVuRs"></use>
        </g>
      </g>
      <g id="g215">
        <g id="g213">
          <use height="100%" width="100%" y="0" x="0" id="use211" stroke-opacity="1" stroke-width="1" stroke="#ffffff" fill-opacity="0" opacity="1" xlink:href="#b2kMDFHjXu"></use>
        </g>
      </g>
      <g id="g221">
        <g id="g219">
          <use height="100%" width="100%" y="0" x="0" id="use217" stroke-opacity="1" stroke-width="1" stroke="#ffffff" fill-opacity="0" opacity="1" xlink:href="#eCovxcLP1"></use>
        </g>
      </g>
      <g id="g227">
        <g id="g225">
          <use height="100%" width="100%" y="0" x="0" id="use223" stroke-opacity="1" stroke-width="1" stroke="#ffffff" fill-opacity="0" opacity="1" xlink:href="#a19qK7gsGX"></use>
        </g>
      </g>
    </g>
  </g>
<style data-made-with="vivus-instant">.LPuotSGt_0{stroke-dasharray:1508 1510;stroke-dashoffset:1509;animation:LPuotSGt_draw 2000ms ease 0ms forwards;}.LPuotSGt_1{stroke-dasharray:0 2;stroke-dashoffset:1;animation:LPuotSGt_draw 2000ms ease 33ms forwards;}.LPuotSGt_2{stroke-dasharray:609 611;stroke-dashoffset:610;animation:LPuotSGt_draw 2000ms ease 66ms forwards;}.LPuotSGt_3{stroke-dasharray:321 323;stroke-dashoffset:322;animation:LPuotSGt_draw 2000ms ease 100ms forwards;}.LPuotSGt_4{stroke-dasharray:90 92;stroke-dashoffset:91;animation:LPuotSGt_draw 2000ms ease 133ms forwards;}.LPuotSGt_5{stroke-dasharray:524 526;stroke-dashoffset:525;animation:LPuotSGt_draw 2000ms ease 166ms forwards;}.LPuotSGt_6{stroke-dasharray:649 651;stroke-dashoffset:650;animation:LPuotSGt_draw 2000ms ease 200ms forwards;}.LPuotSGt_7{stroke-dasharray:181 183;stroke-dashoffset:182;animation:LPuotSGt_draw 2000ms ease 233ms forwards;}.LPuotSGt_8{stroke-dasharray:15 17;stroke-dashoffset:16;animation:LPuotSGt_draw 2000ms ease 266ms forwards;}.LPuotSGt_9{stroke-dasharray:442 444;stroke-dashoffset:443;animation:LPuotSGt_draw 2000ms ease 300ms forwards;}.LPuotSGt_10{stroke-dasharray:57 59;stroke-dashoffset:58;animation:LPuotSGt_draw 2000ms ease 333ms forwards;}.LPuotSGt_11{stroke-dasharray:20 22;stroke-dashoffset:21;animation:LPuotSGt_draw 2000ms ease 366ms forwards;}.LPuotSGt_12{stroke-dasharray:392 394;stroke-dashoffset:393;animation:LPuotSGt_draw 2000ms ease 400ms forwards;}.LPuotSGt_13{stroke-dasharray:690 692;stroke-dashoffset:691;animation:LPuotSGt_draw 2000ms ease 433ms forwards;}.LPuotSGt_14{stroke-dasharray:0 2;stroke-dashoffset:1;animation:LPuotSGt_draw 2000ms ease 466ms forwards;}.LPuotSGt_15{stroke-dasharray:298 300;stroke-dashoffset:299;animation:LPuotSGt_draw 2000ms ease 500ms forwards;}.LPuotSGt_16{stroke-dasharray:230 232;stroke-dashoffset:231;animation:LPuotSGt_draw 2000ms ease 533ms forwards;}.LPuotSGt_17{stroke-dasharray:52 54;stroke-dashoffset:53;animation:LPuotSGt_draw 2000ms ease 566ms forwards;}.LPuotSGt_18{stroke-dasharray:4 6;stroke-dashoffset:5;animation:LPuotSGt_draw 2000ms ease 600ms forwards;}.LPuotSGt_19{stroke-dasharray:195 197;stroke-dashoffset:196;animation:LPuotSGt_draw 2000ms ease 633ms forwards;}.LPuotSGt_20{stroke-dasharray:12 14;stroke-dashoffset:13;animation:LPuotSGt_draw 2000ms ease 666ms forwards;}.LPuotSGt_21{stroke-dasharray:267 269;stroke-dashoffset:268;animation:LPuotSGt_draw 2000ms ease 700ms forwards;}.LPuotSGt_22{stroke-dasharray:114 116;stroke-dashoffset:115;animation:LPuotSGt_draw 2000ms ease 733ms forwards;}.LPuotSGt_23{stroke-dasharray:340 342;stroke-dashoffset:341;animation:LPuotSGt_draw 2000ms ease 766ms forwards;}.LPuotSGt_24{stroke-dasharray:230 232;stroke-dashoffset:231;animation:LPuotSGt_draw 2000ms ease 800ms forwards;}.LPuotSGt_25{stroke-dasharray:121 123;stroke-dashoffset:122;animation:LPuotSGt_draw 2000ms ease 833ms forwards;}.LPuotSGt_26{stroke-dasharray:369 371;stroke-dashoffset:370;animation:LPuotSGt_draw 2000ms ease 866ms forwards;}.LPuotSGt_27{stroke-dasharray:452 454;stroke-dashoffset:453;animation:LPuotSGt_draw 2000ms ease 900ms forwards;}.LPuotSGt_28{stroke-dasharray:911 913;stroke-dashoffset:912;animation:LPuotSGt_draw 2000ms ease 933ms forwards;}.LPuotSGt_29{stroke-dasharray:292 294;stroke-dashoffset:293;animation:LPuotSGt_draw 2000ms ease 966ms forwards;}.LPuotSGt_30{stroke-dasharray:224 226;stroke-dashoffset:225;animation:LPuotSGt_draw 2000ms ease 1000ms forwards;}@keyframes LPuotSGt_draw{100%{stroke-dashoffset:0;}}@keyframes LPuotSGt_fade{0%{stroke-opacity:1;}94.44444444444444%{stroke-opacity:1;}100%{stroke-opacity:0;}}</style></svg>
