<!--?xml version="1.0" encoding="UTF-8" standalone="no"?-->

<svg version="1.1" xmlns="http://www.w3.org/2000/svg" xmlns:xlink="http://www.w3.org/1999/xlink" preserveAspectRatio="xMidYMid meet" viewBox="0 0 640 640" width="640" height="640" style=""><defs><path d="M467 330.5C463 350.5 450 370.5 427 392.5C404 414.5 376 408.5 359 404.5C342 400.5 325 374.5 329 381.5C333 388.5 336 400.5 338 414.5C339.33 423.83 341 430.5 343 434.5L359 440.5C392.33 436.5 416 432.83 430 429.5C451 424.5 470 410.5 476 401.5C482 392.5 482 377.5 489 347.5C493.67 327.5 493.67 306.5 489 284.5L463 261.5L472 284.5L447 252.5C476.33 253.17 496 254.5 506 256.5C521 259.5 519 268.5 517 284.5C515 300.5 514 343.5 517 354.5C520 365.5 513 445.5 512 468.5C511 491.5 517 528.5 520 546.5C522 558.5 518.33 574.5 509 594.5L481 589.5L376 584.5L320 581.5L277 581.5L228 581.5C225.33 571.5 222.67 562.83 220 555.5C216 544.5 200 526.5 190 504.5C180 482.5 176 452.5 176 429.5C176 414.17 183.33 400.17 198 387.5" id="bh36RE77K" class="sXygzWlt_0"></path><path d="" id="dLEhQiSos" class="sXygzWlt_1"></path><path d="M416.88 225.99C421.38 220.49 421.38 221.49 427.88 221.49C432.21 221.49 434.81 222.49 435.68 224.49L435.68 233.49L438.35 246.54L449.12 258.74C448.83 257.42 447.35 256.54 444.68 256.1C442.01 255.66 440.46 256.32 440.01 258.1L434.01 262.43L435.68 277.2C436.57 286.76 437.12 292.87 437.35 295.53C437.68 299.53 431.68 322.53 432.68 331.2C433.68 339.87 439.35 343.53 438.35 341.2C437.68 339.64 437.35 337.76 437.35 335.53L435.68 321.53L435.68 303.2C432.57 297.42 430.9 291.98 430.68 286.87C430.46 281.76 431.12 275.42 432.68 267.87C440.24 268.53 446.12 268.87 450.35 268.87C454.57 268.87 458.9 268.87 463.35 268.87L460.01 280.53C456.68 296.53 455.24 305.64 455.68 307.87C456.35 311.2 455.35 330.53 454.35 337.53C453.35 344.53 446.35 357.2 441.01 361.53C435.68 365.87 434.68 363.87 429.01 367.53C423.35 371.2 420.68 376.87 415.35 384.53C411.79 389.64 409.68 394.98 409.01 400.53C415.68 394.09 423.57 387.42 432.68 380.53C446.35 370.2 464.4 347.2 469.2 338.6C474 330 477.6 310 478 306.6C478.27 304.33 475.33 297.07 469.2 284.8C470.67 288.13 471.93 291.47 473 294.8C474.6 299.8 472 305.4 471.2 313.8C470.67 319.4 469.13 324.93 466.6 330.4" id="aPnx1HFLu" class="sXygzWlt_2"></path><path d="M439.32 79.54C442.99 83.87 445.09 86.87 445.62 88.54C416.09 100.21 402.82 107.37 405.82 110.04C410.32 114.04 408.32 114.54 413.74 112.19C417.35 110.62 418.91 107.96 418.42 104.19C427.75 103.86 435.35 103.36 441.22 102.69C447.09 102.02 451.15 100.69 453.42 98.69C452.42 102.02 451.09 106.52 449.42 112.19C446.92 120.69 445.42 126.19 445.62 135.19C445.82 144.19 447.72 150.94 447.72 160.61C447.72 170.27 447.62 167.34 445.62 186.34C444.29 199.01 442.82 215.34 441.22 235.34L440.42 224.34L437.42 219.14C434.75 217.41 432.82 215.07 431.62 212.14C430.42 209.21 429.49 207.87 428.82 208.14C428.82 207.21 427.75 207.54 425.62 209.14C422.42 211.54 422.22 210.54 418.42 212.14C414.62 213.74 414.74 216.74 413.74 219.54C413.07 221.41 412.67 224.94 412.54 230.14L416.74 226.14" id="fJgJKuZfU" class="sXygzWlt_3"></path><path d="M393.82 82.54C397.15 99.87 399.82 109.37 401.82 111.04C403.82 112.71 409.65 107.71 419.32 96.04C425.65 84.37 429.82 77.21 431.82 74.54C433.82 71.87 436.32 73.54 439.32 79.54" id="bsTS9EdgX" class="sXygzWlt_4"></path><path d="M369.42 508.59C376.09 519.92 379.09 527.09 378.42 530.09C377.42 534.59 374.92 542.09 375.42 559.09C375.92 576.09 372.92 574.59 362.92 577.59C352.92 580.59 326.92 569.59 316.92 568.59C310.25 567.92 297.42 561.92 278.42 550.59C279.42 546.59 280.09 541.42 280.42 535.09C280.75 528.76 280.09 515.09 278.42 494.09C276.75 508.09 275.92 518.76 275.92 526.09C275.92 537.09 270.42 549.59 269.92 562.09C269.42 574.59 270.42 575.09 275.92 574.09C281.42 573.09 292.92 574.59 303.92 574.09C314.92 573.59 327.92 574.59 339.42 577.59C350.92 580.59 365.42 584.09 375.42 584.09C382.09 584.09 390.92 582.59 401.92 579.59C392.59 558.92 387.42 545.76 386.42 540.09C385.42 534.42 379.25 521.59 367.92 501.59" id="e48NTbsMD" class="sXygzWlt_5"></path><path d="M265.42 324.09L273.92 331.59L277.92 349.59C270.25 344.92 265.59 342.26 263.92 341.59C261.42 340.59 264.92 323.59 261.92 320C259.92 317.61 254.59 317.61 245.92 320L242.92 328.59C243.25 344.59 243.75 354.76 244.42 359.09C245.09 363.42 248.75 369.42 255.42 377.09L263.92 373.59L258.42 384.59C261.09 384.59 263.42 383.26 265.42 380.59C267.42 377.92 271.09 376.76 276.42 377.09C273.09 384.42 272.25 391.42 273.92 398.09C276.42 408.09 270.92 414.59 267.92 417.09C264.92 419.59 282.42 416.59 295.42 413.59C304.09 411.59 309.59 409.26 311.92 406.59C308.92 403.26 306.09 399.59 303.42 395.59C300.75 391.59 298.59 388.42 296.92 386.09C294.25 379.76 289.92 373.59 283.92 367.59C277.92 361.59 273.75 357.76 271.42 356.09C275.75 357.76 281.25 360.09 287.92 363.09C297.92 367.59 301.92 373.59 309.92 380.59C317.92 387.59 326.92 390.59 328.92 398.09C330.25 403.09 333.75 415.92 339.42 436.59L331.42 430.59C334.75 436.26 341.59 452.59 351.92 479.59C367.42 520.09 362.42 513.59 356.92 518.59C351.42 523.59 341.92 523.09 335.86 522.59C329.81 522.09 317.92 516.09 307.42 507.09C300.42 501.09 290.59 496.76 277.92 494.09" id="d3QtiufTNq" class="sXygzWlt_6"></path><path d="M213.92 303.09L201.92 309.09L201.92 321.59L203.92 338.09L203.92 352.09L213.92 350.59L224.42 352.09C229.75 348.42 233.59 345.09 235.92 342.09C238.25 339.09 239.92 336.76 240.92 335.09L245.92 318.2L235.92 307.09L226.42 307.09L226.42 311.09L226.42 318.2L224.42 331.09L221.92 343.59" id="aNsN9ZRPC" class="sXygzWlt_7"></path><path d="M225.92 309.59L212.92 303.09" id="a2rkoTXxqo" class="sXygzWlt_8"></path><path d="M258.92 383.59C254.92 382.59 251.75 382.59 249.42 383.59C247.09 384.59 244.09 380.76 240.42 372.09C240.09 377.09 240.09 380.92 240.42 383.59C240.75 386.26 235.92 386.26 225.92 383.59L216.92 365.59L221.92 373.59L215.42 383.59C212.42 378.92 209.42 376.26 206.42 375.59C203.42 374.92 200.25 374.26 196.92 373.59L199.42 361.59C198.42 351.59 198.42 343.92 199.42 338.59C200.92 330.59 203.42 309.09 199.42 305.09C196.75 302.42 193.42 301.76 189.42 303.09L189.42 310.98C186.42 312.72 183.92 314.76 181.92 317.09C178.92 320.59 181.42 328.59 180.42 338.59C179.75 345.26 180.25 358.59 181.92 378.59L196.92 385.59C205.25 390.26 218.59 397.09 236.92 406.09C264.42 419.59 263.92 426.59 267.42 437.59C269.75 444.92 271.92 454.59 273.92 466.59L279.92 481.09L278.42 494.09" id="aspJI7Zst" class="sXygzWlt_9"></path><path d="M273.65 328.77C276.32 330.33 278.76 330.77 280.99 330.11C283.21 329.44 287.65 329.44 294.32 330.11L288.32 335.77L276.99 335.77L270.32 337.11L273.65 328.77Z" id="eedYbA1JQ" class="sXygzWlt_10"></path><path d="M264.32 322.44L282.32 328.77" id="e1Dh3i633y" class="sXygzWlt_11"></path><path d="M441.12 234.09C432.79 231.42 426.29 229.59 421.62 228.59C414.62 227.09 413.62 233.59 412.12 241.09C411.12 246.09 410.45 249.42 410.12 251.09C404.79 253.42 402.29 256.42 402.62 260.09C402.95 263.76 405.45 263.76 410.12 260.09L419.12 254.59L431.62 254.59L437.12 251.09L434.12 260.09C425.45 270.09 419.6 276.92 416.57 280.59C412.02 286.09 405.62 282.09 402.62 277.09C400.62 273.76 399.29 270.26 398.62 266.59C396.95 270.26 394.79 276.42 392.12 285.09C388.12 298.09 382.62 309.09 376.12 317.09C371.79 322.42 357.12 335.92 332.12 357.59L337.12 359.59C335.12 362.26 333.45 366.09 332.12 371.09C330.12 378.59 332.12 382.09 334.62 386.09C336.29 388.76 342.62 390.76 353.62 392.09C357.62 391.42 362.95 391.42 369.62 392.09C379.62 393.09 381.62 395.59 390.12 398.26C395.79 400.03 402.08 400.79 409.01 400.53" id="asVcPAMHs" class="sXygzWlt_12"></path><path d="M445.87 192.14C441.87 177.47 440.29 166.49 441.12 159.19C442.37 148.24 440.37 132.14 441.12 119.64C441.87 107.14 436.37 110.64 426.37 111.35C416.37 112.06 409.37 114.14 398.67 116.64C387.97 119.14 383.17 116.19 388.17 128.69C393.17 141.19 381.17 137.69 376.67 134.19C372.17 130.69 365.17 129.69 362.29 136.69C360.38 141.36 363 148.86 370.17 159.19L343.17 148.19L359.67 172.19C352.67 168.19 350.17 167.69 352.17 170.69C354.17 173.69 354.84 180.36 354.17 190.69C355.17 194.69 359.34 197.19 366.67 198.19C377.67 199.69 379.17 200.19 386.21 206.69C390.91 211.02 394.06 214.19 395.67 216.19C399 215.52 403.45 214.02 409.01 211.69C414.58 209.36 418.79 208.69 421.67 209.69L416.57 214.69L407.17 219.69L398.67 228.37L402.67 241.69L386.21 259.69L376.67 240.19L382.17 241.69L393.82 229.69C391.72 231.02 387.84 232.91 382.17 235.34C373.67 238.99 352.67 249.69 347.17 254.69C343.5 258.02 335.67 267.02 323.67 281.69C320.67 284.69 319.45 290.02 320 297.69C320.83 309.19 316.67 317.69 313.67 342.19C310.67 366.69 315.17 375.69 320 370.19C323.22 366.52 326.99 362.52 331.3 358.19" id="bdn3wCtXh" class="sXygzWlt_13"></path><path d="" id="blzwv4wuT" class="sXygzWlt_14"></path><path d="M261.54 267.59C266.21 273.59 269.63 277.51 271.79 279.34C275.04 282.09 287.29 286.34 291.79 286.84C296.29 287.34 297.29 285.59 301.29 283.09C305.29 280.59 305.79 275.34 306.79 272.09C307.79 268.84 306.29 255.84 305.29 251.59C304.63 248.76 299.79 242.67 290.79 233.34L265.79 231.84L256.79 238.59L254.54 247.34C254.88 252.67 255.63 256.76 256.79 259.59C257.49 261.28 258.33 262.9 259.32 264.47C259.99 265.54 260.73 266.58 261.54 267.59C267.21 271.09 271.46 274.17 274.29 276.84C277.13 279.51 280.96 281.59 285.79 283.09L273.32 284.09C271.97 282.59 272.79 285.01 275.79 291.34C278.79 297.67 278.29 301.01 274.29 301.34L267.54 300.34C268.71 301.84 267.64 303.84 264.32 306.34C261 308.84 259.41 308.01 259.54 303.84C256.54 304.01 253.46 305.26 250.29 307.59C245.54 311.09 242.79 303.84 243.54 306.34C244.04 308.01 244.63 310.92 245.29 315.09L241.54 314.48L241.54 319.34L243.54 322.44" id="dtFpeXO2S" class="sXygzWlt_15"></path><path d="M230.03 273.97C227.53 276.97 223.62 276.97 218.29 273.97C214.29 271.97 210.96 269.63 208.29 266.97C204.29 262.97 196.79 254.47 195.29 238.97C193.79 223.47 196.29 223.97 205.79 222.47C215.29 220.97 218.79 221.47 230.03 228.37C241.26 235.28 240.04 251.59 239.79 259.09C239.74 260.85 239.59 262.24 239.44 263.36C238.93 267.01 238.26 267.81 239.79 269.34C241.79 271.34 239.54 274.84 239.79 278.84C240.04 282.84 233.29 287.09 231.04 291.09C229.54 293.76 230.21 296.17 233.04 298.34L237.04 300.84C240.54 304.51 243.04 306.34 244.54 306.34C246.04 306.34 247.38 305.92 248.54 305.09C250.38 303.26 253.71 301.84 258.54 300.84C265.79 299.34 258.29 305.59 259.54 303.09C260.38 301.42 262.88 300.42 267.04 300.09" id="b2P4WEDXx3" class="sXygzWlt_16"></path><path d="M236.29 300.47L234.79 291.47L236.29 279.97C238.96 267.3 239.96 262 239.29 264.06C238.63 266.12 235.54 269.25 230.03 273.47" id="j237ibYi25" class="sXygzWlt_17"></path><path d="M267.54 302.42L264.32 300.47" id="a2C3emzzb" class="sXygzWlt_18"></path><path d="M289.17 245.53C290.75 245.36 292.88 244.65 295.54 243.38C294.63 243.48 293.79 243.82 293.04 244.4C292.29 244.99 291.88 245.49 291.79 245.9C291.63 247.24 291.63 248.4 291.79 249.38C292.04 250.86 292.29 251.15 293.92 251.72C295.54 252.28 296.17 251.9 297.92 251.15C299.67 250.4 298.92 248.03 298.67 245.9C298.5 244.49 299.63 243.4 302.04 242.65L297.92 244.4C295.17 243.65 292.46 243.07 289.79 242.65C285.79 242.03 275.79 242.05 279.92 242.05C282.67 242.05 283.74 240.72 283.13 238.05L294.32 238.05L307.12 242.05L304.13 243.38L308.79 247.05C306.35 249.49 303.91 251.31 301.46 252.5C297.79 254.28 293.13 252.72 289.79 251.72C287.57 251.05 285.08 249.27 282.32 246.38L280.72 245.32L277.79 243.38C272.68 243.83 268.46 244.27 265.13 244.72C261.79 245.16 259.79 246.72 259.13 249.38C258.68 253.38 259.91 256.6 262.79 259.05C267.13 262.72 270.79 264.05 273.32 268.05C275 270.72 275.34 275.72 274.33 283.05" id="ah66aOuwA" class="sXygzWlt_19"></path><path d="M290.92 245.4C289.17 245.74 287.42 245.99 285.67 246.15C283.92 246.32 281.84 246.07 279.42 245.4" id="cbEDp3kUd" class="sXygzWlt_20"></path><path d="M309.6 248.27C313.6 246.21 317.93 245.26 322.6 245.4C329.6 245.62 385.93 222.18 393.93 218.95C401.93 215.72 402.93 213.52 409.93 211.85C414.6 210.74 417.26 210.29 417.93 210.52C417.04 214.07 415.26 215.63 412.6 215.18C409.93 214.74 405.55 215.99 399.46 218.95L321.46 248.62L316.13 248.62L312.7 255.28L305.13 246.95L314.79 246.2L306.13 255.28" id="d2n3E82gQm" class="sXygzWlt_21"></path><path d="M229.42 226.75L238.17 232.87C232.34 231.79 230.76 232.33 233.42 234.5C237.42 237.75 239.92 237.75 242.92 234.5C244.92 232.33 244.46 230.17 241.54 228C244.3 228.17 246.09 229.79 246.92 232.87C247.76 235.95 245.96 240.13 241.54 245.4C235.96 237.97 233.26 235.52 233.42 238.05C233.67 241.85 225.17 246.75 227.17 245.4C229.17 244.06 237.67 240.75 243.54 239C247.46 237.83 251.67 238.08 256.17 239.75" id="a3WA1Iruzl" class="sXygzWlt_22"></path><path d="M193.17 228.37C193.67 223.12 209.17 220.37 212.17 219.12C215.17 217.87 220.67 212.62 223.17 209.12C225.68 205.62 227.17 199.37 228.92 194.37C230.67 189.37 229.42 185.87 228.92 181.12C228.42 176.37 227.67 171.37 229.42 156.87C230.59 147.21 234.92 141.96 242.42 141.12C237.26 142.12 233.44 143.21 230.97 144.37C228.5 145.54 225.9 147.57 223.17 150.45C217.14 157.62 212.46 163.62 209.12 168.45C204.12 175.7 204.17 177.75 201.92 184.5C199.66 191.25 198.17 200.75 197.42 210.46C196.67 220.17 198.92 223.25 198.92 226.75C198.92 229.08 197.58 230.58 194.89 231.25C195.58 233.92 196.42 236.5 197.42 239C198.92 242.75 212.42 254 209.67 251.25C206.92 248.5 204.92 247.75 200.42 239C195.92 230.25 199.42 230 204.42 226.75C207.76 224.58 212.34 223.5 218.17 223.5L215.92 216.75L219.42 212.75C219.92 214.25 221.17 215.92 223.17 217.75C226.17 220.5 229.67 218.75 234.76 220.5C238.15 221.67 241.37 223.75 244.42 226.75" id="baWqhUPWd" class="sXygzWlt_23"></path><path d="M264.32 231.84L264.32 225.65C275.05 224.65 285.59 222.82 295.92 220.15C306.25 217.48 318.42 219.32 332.42 225.65L337.92 212.65C336.92 206.98 336.42 201.57 336.42 196.4C336.42 188.65 340.42 181.15 348.26 173.15C356.11 165.15 363.42 157.15 371.42 147.65C376.75 141.32 379.92 136.15 380.92 132.15C384.25 122.48 387.92 115.22 391.92 110.36C395.92 105.5 400.41 101.1 405.41 97.15" id="bt2qG6BVb" class="sXygzWlt_24"></path><path d="M289.67 234.52L295.17 234.52L305.92 238.05L323.42 222.27L328.92 234.52C323.75 232.36 319.09 230.52 314.92 229.02C310.75 227.52 306.17 228.46 301.17 231.84L275.17 230.27L264.32 231.84" id="gv3l5WM9" class="sXygzWlt_25"></path><path d="M367.57 120.25C370.57 116.75 373.57 100.75 376.57 89.25C379.57 77.75 369.57 69.75 364.07 59.83C358.57 49.92 332.07 49.75 338.57 47.75C342.9 46.42 348.07 43.75 354.07 39.75L325.07 44.75C340.4 39.42 350.9 36.58 356.57 36.25C365.07 35.75 370.07 38.25 374.57 47.75C379.07 57.25 382.57 53.25 392.57 68.55C402.57 83.85 401.07 79.25 400.9 73.31C400.79 69.35 396.85 59 389.07 42.25C393.62 52.19 397.57 58.05 400.9 59.83C405.9 62.5 411.24 69.17 412.57 74.5C413.9 79.83 407.57 86.17 406.24 90.5C404.9 94.83 408.57 93.17 410.57 90.5C411.9 88.72 413.68 83.39 415.9 74.5L414.37 68.55" id="b11aMMG8Rj" class="sXygzWlt_26"></path><path d="M282.32 141.12L262.07 130.75C276.07 131.75 286.82 131.75 294.32 130.75C301.82 129.75 316.74 132.08 339.07 137.75C333.07 136.75 332.4 135.25 337.07 133.25C341.74 131.25 339.81 125.08 331.3 114.75C324.15 100.08 317.07 89.08 310.07 81.75C303.07 74.42 287.82 71.6 264.32 73.31C268.49 72.94 279.25 71.92 296.62 70.25C322.67 67.75 344.57 86.25 347.07 99.75C348.74 108.75 347.24 122.54 342.57 141.12C346.9 136.87 350.74 132.58 354.07 128.25C357.4 123.92 358.57 112.75 357.57 94.75C360.24 98.42 362.57 102.92 364.57 108.25C366.57 113.58 366.57 119.75 364.57 126.75L368.57 118.25" id="a1neZvXg49" class="sXygzWlt_27"></path><path d="M322.57 52.75C327.57 57.75 330.9 62.92 332.57 68.25C335.07 76.25 337.57 88.75 338.07 97.15C338.57 105.55 330.07 137.75 326.57 141.12C324.24 143.38 324.24 128.72 326.57 97.15C320.9 77.55 318.71 68.51 320 70.02C321.29 71.53 322.98 85.31 325.07 111.35L322.57 137.75C315.24 123.08 310.64 113.42 308.79 108.75C306.02 101.75 288.57 88.25 279.92 86.75C274.15 85.75 263.87 89.22 249.07 97.15C260.74 94.22 268.82 93.58 273.32 95.25C280.07 97.75 281.57 102.75 282.32 108.75C282.82 112.75 280.74 122.42 276.07 137.75C271.4 129.08 266.74 118.92 262.07 107.25C257.4 95.58 248.3 90.61 234.76 92.33C262.3 77.28 278.15 68.58 282.32 66.25C288.57 62.75 320.07 47.25 334.86 47.25C349.66 47.25 368.07 64.25 370.49 71.75C372.1 76.75 373.12 89.95 373.57 111.35C370.9 91.62 368.57 79.75 366.57 75.75C363.57 69.75 352.57 68.25 332.57 62.75C312.57 57.25 311.57 56.25 325.07 48.75C338.57 41.25 363.57 37.75 373.57 39.75C383.57 41.75 397.57 51.75 401.07 55.75C404.57 59.75 401.57 69.25 396.07 83.75C392.4 93.42 390.4 89.94 390.07 73.31" id="cbflBFhZM" class="sXygzWlt_28"></path><path d="M221.27 224.45C216.6 222.78 210.15 219.28 201.92 213.95C193.69 208.62 190.3 212.88 191.77 226.75C190.44 215.55 189.77 206.78 189.77 200.45C189.77 190.95 197.27 162.45 199.77 148.95C202.27 135.45 223.57 97.25 238.07 134.75C252.57 172.25 253.07 135.75 256.17 129.25C259.28 122.75 256.07 107.75 238.07 107.75C226.07 107.75 224.97 102.61 234.76 92.33" id="b2a82RJrDM" class="sXygzWlt_29"></path><path d="M194.89 222.27C193.81 215.39 193.81 206.77 194.89 196.4C196.51 180.85 222.27 159.45 217.77 164.49C213.27 169.54 217.77 176.45 219.42 190.95C220.52 200.62 218.97 205.28 214.77 204.95L211.77 153.95C218.44 150.62 223.47 146.34 226.87 141.12C230.27 135.91 243.29 133.68 265.93 134.45" id="b5sBW8gOqN" class="sXygzWlt_30"></path></defs><g><g><g><g><use xlink:href="#bh36RE77K" opacity="1" fill-opacity="0" stroke="#000000" stroke-width="1" stroke-opacity="1"></use></g></g><g><g><use xlink:href="#dLEhQiSos" opacity="1" fill-opacity="0" stroke="#000000" stroke-width="1" stroke-opacity="1"></use></g></g><g><g><use xlink:href="#aPnx1HFLu" opacity="1" fill-opacity="0" stroke="#000000" stroke-width="1" stroke-opacity="1"></use></g></g><g><g><use xlink:href="#fJgJKuZfU" opacity="1" fill-opacity="0" stroke="#000000" stroke-width="1" stroke-opacity="1"></use></g></g><g><g><use xlink:href="#bsTS9EdgX" opacity="1" fill-opacity="0" stroke="#000000" stroke-width="1" stroke-opacity="1"></use></g></g><g><g><use xlink:href="#e48NTbsMD" opacity="1" fill-opacity="0" stroke="#000000" stroke-width="1" stroke-opacity="1"></use></g></g><g><g><use xlink:href="#d3QtiufTNq" opacity="1" fill-opacity="0" stroke="#000000" stroke-width="1" stroke-opacity="1"></use></g></g><g><g><use xlink:href="#aNsN9ZRPC" opacity="1" fill-opacity="0" stroke="#000000" stroke-width="1" stroke-opacity="1"></use></g></g><g><g><use xlink:href="#a2rkoTXxqo" opacity="1" fill-opacity="0" stroke="#000000" stroke-width="1" stroke-opacity="1"></use></g></g><g><g><use xlink:href="#aspJI7Zst" opacity="1" fill-opacity="0" stroke="#000000" stroke-width="1" stroke-opacity="1"></use></g></g><g><g><use xlink:href="#eedYbA1JQ" opacity="1" fill-opacity="0" stroke="#000000" stroke-width="1" stroke-opacity="1"></use></g></g><g><g><use xlink:href="#e1Dh3i633y" opacity="1" fill-opacity="0" stroke="#000000" stroke-width="1" stroke-opacity="1"></use></g></g><g><g><use xlink:href="#asVcPAMHs" opacity="1" fill-opacity="0" stroke="#000000" stroke-width="1" stroke-opacity="1"></use></g></g><g><g><use xlink:href="#bdn3wCtXh" opacity="1" fill-opacity="0" stroke="#000000" stroke-width="1" stroke-opacity="1"></use></g></g><g><g><use xlink:href="#blzwv4wuT" opacity="1" fill-opacity="0" stroke="#000000" stroke-width="1" stroke-opacity="1"></use></g></g><g><g><use xlink:href="#dtFpeXO2S" opacity="1" fill-opacity="0" stroke="#000000" stroke-width="1" stroke-opacity="1"></use></g></g><g><g><use xlink:href="#b2P4WEDXx3" opacity="1" fill-opacity="0" stroke="#000000" stroke-width="1" stroke-opacity="1"></use></g></g><g><g><use xlink:href="#j237ibYi25" opacity="1" fill-opacity="0" stroke="#000000" stroke-width="1" stroke-opacity="1"></use></g></g><g><g><use xlink:href="#a2C3emzzb" opacity="1" fill-opacity="0" stroke="#000000" stroke-width="1" stroke-opacity="1"></use></g></g><g><g><use xlink:href="#ah66aOuwA" opacity="1" fill-opacity="0" stroke="#000000" stroke-width="1" stroke-opacity="1"></use></g></g><g><g><use xlink:href="#cbEDp3kUd" opacity="1" fill-opacity="0" stroke="#000000" stroke-width="1" stroke-opacity="1"></use></g></g><g><g><use xlink:href="#d2n3E82gQm" opacity="1" fill-opacity="0" stroke="#000000" stroke-width="1" stroke-opacity="1"></use></g></g><g><g><use xlink:href="#a3WA1Iruzl" opacity="1" fill-opacity="0" stroke="#000000" stroke-width="1" stroke-opacity="1"></use></g></g><g><g><use xlink:href="#baWqhUPWd" opacity="1" fill-opacity="0" stroke="#000000" stroke-width="1" stroke-opacity="1"></use></g></g><g><g><use xlink:href="#bt2qG6BVb" opacity="1" fill-opacity="0" stroke="#000000" stroke-width="1" stroke-opacity="1"></use></g></g><g><g><use xlink:href="#gv3l5WM9" opacity="1" fill-opacity="0" stroke="#000000" stroke-width="1" stroke-opacity="1"></use></g></g><g><g><use xlink:href="#b11aMMG8Rj" opacity="1" fill-opacity="0" stroke="#000000" stroke-width="1" stroke-opacity="1"></use></g></g><g><g><use xlink:href="#a1neZvXg49" opacity="1" fill-opacity="0" stroke="#000000" stroke-width="1" stroke-opacity="1"></use></g></g><g><g><use xlink:href="#cbflBFhZM" opacity="1" fill-opacity="0" stroke="#000000" stroke-width="1" stroke-opacity="1"></use></g></g><g><g><use xlink:href="#b2a82RJrDM" opacity="1" fill-opacity="0" stroke="#000000" stroke-width="1" stroke-opacity="1"></use></g></g><g><g><use xlink:href="#b5sBW8gOqN" opacity="1" fill-opacity="0" stroke="#000000" stroke-width="1" stroke-opacity="1"></use></g></g></g></g><style data-made-with="vivus-instant">.sXygzWlt_0{stroke-dasharray:1508 1510;stroke-dashoffset:1509;animation:sXygzWlt_draw 2000ms ease 0ms forwards;}.sXygzWlt_1{stroke-dasharray:0 2;stroke-dashoffset:1;animation:sXygzWlt_draw 2000ms ease 33ms forwards;}.sXygzWlt_2{stroke-dasharray:609 611;stroke-dashoffset:610;animation:sXygzWlt_draw 2000ms ease 66ms forwards;}.sXygzWlt_3{stroke-dasharray:321 323;stroke-dashoffset:322;animation:sXygzWlt_draw 2000ms ease 100ms forwards;}.sXygzWlt_4{stroke-dasharray:90 92;stroke-dashoffset:91;animation:sXygzWlt_draw 2000ms ease 133ms forwards;}.sXygzWlt_5{stroke-dasharray:524 526;stroke-dashoffset:525;animation:sXygzWlt_draw 2000ms ease 166ms forwards;}.sXygzWlt_6{stroke-dasharray:649 651;stroke-dashoffset:650;animation:sXygzWlt_draw 2000ms ease 200ms forwards;}.sXygzWlt_7{stroke-dasharray:181 183;stroke-dashoffset:182;animation:sXygzWlt_draw 2000ms ease 233ms forwards;}.sXygzWlt_8{stroke-dasharray:15 17;stroke-dashoffset:16;animation:sXygzWlt_draw 2000ms ease 266ms forwards;}.sXygzWlt_9{stroke-dasharray:442 444;stroke-dashoffset:443;animation:sXygzWlt_draw 2000ms ease 300ms forwards;}.sXygzWlt_10{stroke-dasharray:57 59;stroke-dashoffset:58;animation:sXygzWlt_draw 2000ms ease 333ms forwards;}.sXygzWlt_11{stroke-dasharray:20 22;stroke-dashoffset:21;animation:sXygzWlt_draw 2000ms ease 366ms forwards;}.sXygzWlt_12{stroke-dasharray:392 394;stroke-dashoffset:393;animation:sXygzWlt_draw 2000ms ease 400ms forwards;}.sXygzWlt_13{stroke-dasharray:690 692;stroke-dashoffset:691;animation:sXygzWlt_draw 2000ms ease 433ms forwards;}.sXygzWlt_14{stroke-dasharray:0 2;stroke-dashoffset:1;animation:sXygzWlt_draw 2000ms ease 466ms forwards;}.sXygzWlt_15{stroke-dasharray:298 300;stroke-dashoffset:299;animation:sXygzWlt_draw 2000ms ease 500ms forwards;}.sXygzWlt_16{stroke-dasharray:230 232;stroke-dashoffset:231;animation:sXygzWlt_draw 2000ms ease 533ms forwards;}.sXygzWlt_17{stroke-dasharray:52 54;stroke-dashoffset:53;animation:sXygzWlt_draw 2000ms ease 566ms forwards;}.sXygzWlt_18{stroke-dasharray:4 6;stroke-dashoffset:5;animation:sXygzWlt_draw 2000ms ease 600ms forwards;}.sXygzWlt_19{stroke-dasharray:195 197;stroke-dashoffset:196;animation:sXygzWlt_draw 2000ms ease 633ms forwards;}.sXygzWlt_20{stroke-dasharray:12 14;stroke-dashoffset:13;animation:sXygzWlt_draw 2000ms ease 666ms forwards;}.sXygzWlt_21{stroke-dasharray:267 269;stroke-dashoffset:268;animation:sXygzWlt_draw 2000ms ease 700ms forwards;}.sXygzWlt_22{stroke-dasharray:114 116;stroke-dashoffset:115;animation:sXygzWlt_draw 2000ms ease 733ms forwards;}.sXygzWlt_23{stroke-dasharray:340 342;stroke-dashoffset:341;animation:sXygzWlt_draw 2000ms ease 766ms forwards;}.sXygzWlt_24{stroke-dasharray:230 232;stroke-dashoffset:231;animation:sXygzWlt_draw 2000ms ease 800ms forwards;}.sXygzWlt_25{stroke-dasharray:121 123;stroke-dashoffset:122;animation:sXygzWlt_draw 2000ms ease 833ms forwards;}.sXygzWlt_26{stroke-dasharray:369 371;stroke-dashoffset:370;animation:sXygzWlt_draw 2000ms ease 866ms forwards;}.sXygzWlt_27{stroke-dasharray:452 454;stroke-dashoffset:453;animation:sXygzWlt_draw 2000ms ease 900ms forwards;}.sXygzWlt_28{stroke-dasharray:911 913;stroke-dashoffset:912;animation:sXygzWlt_draw 2000ms ease 933ms forwards;}.sXygzWlt_29{stroke-dasharray:292 294;stroke-dashoffset:293;animation:sXygzWlt_draw 2000ms ease 966ms forwards;}.sXygzWlt_30{stroke-dasharray:224 226;stroke-dashoffset:225;animation:sXygzWlt_draw 2000ms ease 1000ms forwards;}@keyframes sXygzWlt_draw{100%{stroke-dashoffset:0;}}@keyframes sXygzWlt_fade{0%{stroke-opacity:1;}94.44444444444444%{stroke-opacity:1;}100%{stroke-opacity:0;}}</style></svg>